<svg width="600" height="400" viewBox="0 0 600 400" fill="none" xmlns="http://www.w3.org/2000/svg">
  <rect width="600" height="400" fill="#E5E7EB"/>
  <path d="M294 175.2C294 170 298.2 165.8 303.4 165.8H342.4C347.6 165.8 351.8 170 351.8 175.2V233.8C351.8 239 347.6 243.2 342.4 243.2H303.4C298.2 243.2 294 239 294 233.8V175.2Z" fill="white"/>
  <path d="M294 175.2C294 170 298.2 165.8 303.4 165.8H342.4C347.6 165.8 351.8 170 351.8 175.2V233.8C351.8 239 347.6 243.2 342.4 243.2H303.4C298.2 243.2 294 239 294 233.8V175.2Z" fill="#D1D5DB"/>
  <path d="M248.2 165.8H287.2C292.4 165.8 296.6 170 296.6 175.2V233.8C296.6 239 292.4 243.2 287.2 243.2H248.2C243 243.2 238.8 239 238.8 233.8V175.2C238.8 170 243 165.8 248.2 165.8Z" fill="white"/>
  <path d="M248.2 165.8H287.2C292.4 165.8 296.6 170 296.6 175.2V233.8C296.6 239 292.4 243.2 287.2 243.2H248.2C243 243.2 238.8 239 238.8 233.8V175.2C238.8 170 243 165.8 248.2 165.8Z" fill="#D1D5DB"/>
  <rect x="225" y="136.6" width="150" height="20" rx="10" fill="#9CA3AF"/>
  <rect x="225" y="264.6" width="150" height="10" rx="5" fill="#9CA3AF"/>
  <rect x="225" y="284.6" width="150" height="10" rx="5" fill="#9CA3AF"/>
</svg>